# xmcd
#
# Track frame offsets:
#	150
#	10693
#	21496
#	32366
#
# Disc length: 571 seconds
# Revision: 0
# Processed by: cddbd v1.5.2PL0 Copyright (c) Steve Scherf et al.
# Submitted via: dBpowerAMP V12.0
#
DISCID=21023904
DTITLE=Psalty and The Kids' Praise Kids! - John 3:16 (Back Tracks)
DYEAR=1992
DGENRE=Children's Christian
TTITLE0=John 3:16
TTITLE1=John 3:16 (Instrumental)
TTITLE2=John 3:16 (Split Track with Backing Vocals)
TTITLE3=John 3:16 (Instrumental with Backing Vocals)
EXTD=
EXTT0=
EXTT1=
EXTT2=
EXTT3=
PLAYORDER=
